# Tiled2Unity generated file. Do not modify by hand.
# Wavefront file for 'testmap_mesh_0004.obj'

# Vertices (Count = 156)
v -1 -1 0
v -2 -1 0
v -2 0 0
v -1 0 0
v -2 -1 0
v -3 -1 0
v -3 0 0
v -2 0 0
v -5 -5 0
v -6 -5 0
v -6 -4 0
v -5 -4 0
v -6 -5 0
v -7 -5 0
v -7 -4 0
v -6 -4 0
v 0 -9 0
v -1 -9 0
v -1 -8 0
v 0 -8 0
v -23 -10 0
v -24 -10 0
v -24 -9 0
v -23 -9 0
v -24 -10 0
v -25 -10 0
v -25 -9 0
v -24 -9 0
v -21 -11 0
v -22 -11 0
v -22 -10 0
v -21 -10 0
v -22 -11 0
v -23 -11 0
v -23 -10 0
v -22 -10 0
v -23 -11 0
v -24 -11 0
v -24 -10 0
v -23 -10 0
v -1 -14 0
v -2 -14 0
v -2 -13 0
v -1 -13 0
v -21 -14 0
v -22 -14 0
v -22 -13 0
v -21 -13 0
v -22 -14 0
v -23 -14 0
v -23 -13 0
v -22 -13 0
v -23 -14 0
v -24 -14 0
v -24 -13 0
v -23 -13 0
v -23 -15 0
v -24 -15 0
v -24 -14 0
v -23 -14 0
v -24 -15 0
v -25 -15 0
v -25 -14 0
v -24 -14 0
v -11 -18 0
v -12 -18 0
v -12 -17 0
v -11 -17 0
v -12 -18 0
v -13 -18 0
v -13 -17 0
v -12 -17 0
v -24 -18 0
v -25 -18 0
v -25 -17 0
v -24 -17 0
v -11 -19 0
v -12 -19 0
v -12 -18 0
v -11 -18 0
v -12 -19 0
v -13 -19 0
v -13 -18 0
v -12 -18 0
v -22 -19 0
v -23 -19 0
v -23 -18 0
v -22 -18 0
v -23 -19 0
v -24 -19 0
v -24 -18 0
v -23 -18 0
v -24 -19 0
v -25 -19 0
v -25 -18 0
v -24 -18 0
v -16 -20 0
v -17 -20 0
v -17 -19 0
v -16 -19 0
v -22 -20 0
v -23 -20 0
v -23 -19 0
v -22 -19 0
v -23 -20 0
v -24 -20 0
v -24 -19 0
v -23 -19 0
v -24 -20 0
v -25 -20 0
v -25 -19 0
v -24 -19 0
v -22 -21 0
v -23 -21 0
v -23 -20 0
v -22 -20 0
v -23 -21 0
v -24 -21 0
v -24 -20 0
v -23 -20 0
v -24 -21 0
v -25 -21 0
v -25 -20 0
v -24 -20 0
v -13 -22 0
v -14 -22 0
v -14 -21 0
v -13 -21 0
v -14 -22 0
v -15 -22 0
v -15 -21 0
v -14 -21 0
v -22 -22 0
v -23 -22 0
v -23 -21 0
v -22 -21 0
v -23 -22 0
v -24 -22 0
v -24 -21 0
v -23 -21 0
v -24 -22 0
v -25 -22 0
v -25 -21 0
v -24 -21 0
v -13 -23 0
v -14 -23 0
v -14 -22 0
v -13 -22 0
v -14 -23 0
v -15 -23 0
v -15 -22 0
v -14 -22 0
v -11 -25 0
v -12 -25 0
v -12 -24 0
v -11 -24 0

# Texture cooridinates (Count = 66)
vt 0.4782609 0.90625
vt 0.5217391 0.90625
vt 0.5217391 0.9375
vt 0.4782609 0.9375
vt 0.5652174 0.90625
vt 0.5652174 0.9375
vt 0.6086956 0.90625
vt 0.6086956 0.9375
vt 0.6521739 0.90625
vt 0.6521739 0.9375
vt 0.5652174 0.5
vt 0.6086956 0.5
vt 0.6086956 0.53125
vt 0.5652174 0.53125
vt 0.2608696 0.96875
vt 0.3043478 0.96875
vt 0.3043478 1
vt 0.2608696 1
vt 0.3478261 0.96875
vt 0.3478261 1
vt 0.3478261 0.90625
vt 0.3913043 0.90625
vt 0.3913043 0.9375
vt 0.3478261 0.9375
vt 0.2608696 0.90625
vt 0.3043478 0.90625
vt 0.3043478 0.9375
vt 0.2608696 0.9375
vt 0.3913043 0.96875
vt 0.3913043 1
vt 0.4782609 0.46875
vt 0.5217391 0.46875
vt 0.5217391 0.5
vt 0.4782609 0.5
vt 0.5652174 0.46875
vt 0.5217391 0.53125
vt 0.4782609 0.53125
vt 0.4782609 0.4375
vt 0.5217391 0.4375
vt 0.5652174 0.4375
vt 0.4782609 0.78125
vt 0.5217391 0.78125
vt 0.5217391 0.8125
vt 0.4782609 0.8125
vt 0.5652174 0.78125
vt 0.5652174 0.8125
vt 0.6086956 0.78125
vt 0.6086956 0.8125
vt 0.4782609 0.75
vt 0.5217391 0.75
vt 0.5652174 0.75
vt 0.6086956 0.75
vt 0.4782609 0.71875
vt 0.5217391 0.71875
vt 0.5652174 0.71875
vt 0.6086956 0.71875
vt 0.4782609 0.84375
vt 0.5217391 0.84375
vt 0.5217391 0.875
vt 0.4782609 0.875
vt 0.5652174 0.84375
vt 0.5652174 0.875
vt 0.4782609 0.6875
vt 0.5217391 0.6875
vt 0.5652174 0.6875
vt 0.6086956 0.6875

# Normal
vn 0 0 -1

# Mesh description
g testmap_mesh_0004

# Faces
f 1/1/1 2/2/1 3/3/1 4/4/1
f 5/2/1 6/5/1 7/6/1 8/3/1
f 9/5/1 10/7/1 11/8/1 12/6/1
f 13/7/1 14/9/1 15/10/1 16/8/1
f 17/11/1 18/12/1 19/13/1 20/14/1
f 21/15/1 22/16/1 23/17/1 24/18/1
f 25/16/1 26/19/1 27/20/1 28/17/1
f 29/15/1 30/16/1 31/17/1 32/18/1
f 33/16/1 34/19/1 35/20/1 36/17/1
f 37/21/1 38/22/1 39/23/1 40/24/1
f 41/11/1 42/12/1 43/13/1 44/14/1
f 45/25/1 46/26/1 47/27/1 48/28/1
f 49/26/1 50/21/1 51/24/1 52/27/1
f 53/19/1 54/29/1 55/30/1 56/20/1
f 57/25/1 58/26/1 59/27/1 60/28/1
f 61/26/1 62/21/1 63/24/1 64/27/1
f 65/31/1 66/32/1 67/33/1 68/34/1
f 69/32/1 70/35/1 71/11/1 72/33/1
f 73/34/1 74/33/1 75/36/1 76/37/1
f 77/38/1 78/39/1 79/32/1 80/31/1
f 81/39/1 82/40/1 83/35/1 84/32/1
f 85/41/1 86/42/1 87/43/1 88/44/1
f 89/42/1 90/45/1 91/46/1 92/43/1
f 93/45/1 94/47/1 95/48/1 96/46/1
f 97/34/1 98/33/1 99/36/1 100/37/1
f 101/49/1 102/50/1 103/42/1 104/41/1
f 105/50/1 106/51/1 107/45/1 108/42/1
f 109/51/1 110/52/1 111/47/1 112/45/1
f 113/53/1 114/54/1 115/50/1 116/49/1
f 117/54/1 118/55/1 119/51/1 120/50/1
f 121/55/1 122/56/1 123/52/1 124/51/1
f 125/57/1 126/58/1 127/59/1 128/60/1
f 129/58/1 130/61/1 131/62/1 132/59/1
f 133/63/1 134/64/1 135/54/1 136/53/1
f 137/64/1 138/65/1 139/55/1 140/54/1
f 141/65/1 142/66/1 143/56/1 144/55/1
f 145/44/1 146/43/1 147/58/1 148/57/1
f 149/43/1 150/46/1 151/61/1 152/58/1
f 153/34/1 154/33/1 155/36/1 156/37/1

