# Tiled2Unity generated file. Do not modify by hand.
# Wavefront file for 'testmap_mesh_0003.obj'

# Vertices (Count = 176)
v -9 -1 0
v -10 -1 0
v -10 0 0
v -9 0 0
v -10 -1 0
v -11 -1 0
v -11 0 0
v -10 0 0
v -15 -1 0
v -16 -1 0
v -16 0 0
v -15 0 0
v 0 -2 0
v -1 -2 0
v -1 -1 0
v 0 -1 0
v -1 -2 0
v -2 -2 0
v -2 -1 0
v -1 -1 0
v -2 -2 0
v -3 -2 0
v -3 -1 0
v -2 -1 0
v -3 -2 0
v -4 -2 0
v -4 -1 0
v -3 -1 0
v -4 -2 0
v -5 -2 0
v -5 -1 0
v -4 -1 0
v -9 -2 0
v -10 -2 0
v -10 -1 0
v -9 -1 0
v -15 -2 0
v -16 -2 0
v -16 -1 0
v -15 -1 0
v -16 -2 0
v -17 -2 0
v -17 -1 0
v -16 -1 0
v -17 -2 0
v -18 -2 0
v -18 -1 0
v -17 -1 0
v -18 -2 0
v -19 -2 0
v -19 -1 0
v -18 -1 0
v -4 -3 0
v -5 -3 0
v -5 -2 0
v -4 -2 0
v -5 -3 0
v -6 -3 0
v -6 -2 0
v -5 -2 0
v -6 -3 0
v -7 -3 0
v -7 -2 0
v -6 -2 0
v -7 -3 0
v -8 -3 0
v -8 -2 0
v -7 -2 0
v -8 -3 0
v -9 -3 0
v -9 -2 0
v -8 -2 0
v -9 -3 0
v -10 -3 0
v -10 -2 0
v -9 -2 0
v -18 -3 0
v -19 -3 0
v -19 -2 0
v -18 -2 0
v -5 -4 0
v -6 -4 0
v -6 -3 0
v -5 -3 0
v -6 -4 0
v -7 -4 0
v -7 -3 0
v -6 -3 0
v -18 -4 0
v -19 -4 0
v -19 -3 0
v -18 -3 0
v -5 -5 0
v -6 -5 0
v -6 -4 0
v -5 -4 0
v -6 -5 0
v -7 -5 0
v -7 -4 0
v -6 -4 0
v -18 -5 0
v -19 -5 0
v -19 -4 0
v -18 -4 0
v -19 -5 0
v -20 -5 0
v -20 -4 0
v -19 -4 0
v -20 -5 0
v -21 -5 0
v -21 -4 0
v -20 -4 0
v -21 -5 0
v -22 -5 0
v -22 -4 0
v -21 -4 0
v -22 -5 0
v -23 -5 0
v -23 -4 0
v -22 -4 0
v -22 -6 0
v -23 -6 0
v -23 -5 0
v -22 -5 0
v -22 -7 0
v -23 -7 0
v -23 -6 0
v -22 -6 0
v -23 -7 0
v -24 -7 0
v -24 -6 0
v -23 -6 0
v -24 -7 0
v -25 -7 0
v -25 -6 0
v -24 -6 0
v 0 -9 0
v -1 -9 0
v -1 -8 0
v 0 -8 0
v 0 -10 0
v -1 -10 0
v -1 -9 0
v 0 -9 0
v 0 -11 0
v -1 -11 0
v -1 -10 0
v 0 -10 0
v 0 -12 0
v -1 -12 0
v -1 -11 0
v 0 -11 0
v -1 -12 0
v -2 -12 0
v -2 -11 0
v -1 -11 0
v -2 -12 0
v -3 -12 0
v -3 -11 0
v -2 -11 0
v -2 -13 0
v -3 -13 0
v -3 -12 0
v -2 -12 0
v 0 -14 0
v -1 -14 0
v -1 -13 0
v 0 -13 0
v -1 -14 0
v -2 -14 0
v -2 -13 0
v -1 -13 0
v -2 -14 0
v -3 -14 0
v -3 -13 0
v -2 -13 0

# Texture cooridinates (Count = 47)
vt 0.5 0.9772727
vt 0.5833333 0.9772727
vt 0.5833333 1
vt 0.5 1
vt 0.6666667 0.8636364
vt 0.75 0.8636364
vt 0.75 0.8863636
vt 0.6666667 0.8863636
vt 0.25 0.6818182
vt 0.3333333 0.6818182
vt 0.3333333 0.7045455
vt 0.25 0.7045455
vt 0.5833333 0.8636364
vt 0.5833333 0.8863636
vt 0.6666667 0.9772727
vt 0.75 0.9772727
vt 0.75 1
vt 0.6666667 1
vt 0.75 0.9090909
vt 0.6666667 0.9090909
vt 0.25 0.6590909
vt 0.3333333 0.6590909
vt 0.4166667 0.6590909
vt 0.4166667 0.6818182
vt 0.4166667 0.7727273
vt 0.5 0.7727273
vt 0.5 0.7954546
vt 0.4166667 0.7954546
vt 0.5 0.8636364
vt 0.5 0.8863636
vt 0.5833333 0.9090909
vt 0.5 0.9090909
vt 0.9166667 0.9090909
vt 1 0.9090909
vt 1 0.9318182
vt 0.9166667 0.9318182
vt 0.9166667 0.8863636
vt 1 0.8863636
vt 0.75 0.9318182
vt 0.8333333 0.9318182
vt 0.8333333 0.9545454
vt 0.75 0.9545454
vt 0.8333333 0.9090909
vt 0.8333333 0.8636364
vt 0.9166667 0.8636364
vt 0.8333333 0.8863636
vt 1 0.8636364

# Normal
vn 0 0 -1

# Mesh description
g testmap_mesh_0003

# Faces
f 1/1/1 2/2/1 3/3/1 4/4/1
f 5/5/1 6/6/1 7/7/1 8/8/1
f 9/9/1 10/10/1 11/11/1 12/12/1
f 13/13/1 14/5/1 15/8/1 16/14/1
f 17/13/1 18/5/1 19/8/1 20/14/1
f 21/13/1 22/5/1 23/8/1 24/14/1
f 25/13/1 26/5/1 27/8/1 28/14/1
f 29/15/1 30/16/1 31/17/1 32/18/1
f 33/8/1 34/7/1 35/19/1 36/20/1
f 37/21/1 38/22/1 39/10/1 40/9/1
f 41/22/1 42/23/1 43/24/1 44/10/1
f 45/22/1 46/23/1 47/24/1 48/10/1
f 49/25/1 50/26/1 51/27/1 52/28/1
f 53/29/1 54/13/1 55/14/1 56/30/1
f 57/15/1 58/16/1 59/17/1 60/18/1
f 61/1/1 62/2/1 63/3/1 64/4/1
f 65/13/1 66/5/1 67/8/1 68/14/1
f 69/13/1 70/5/1 71/8/1 72/14/1
f 73/5/1 74/6/1 75/7/1 76/8/1
f 77/9/1 78/10/1 79/11/1 80/12/1
f 81/30/1 82/14/1 83/31/1 84/32/1
f 85/8/1 86/7/1 87/19/1 88/20/1
f 89/9/1 90/10/1 91/11/1 92/12/1
f 93/29/1 94/13/1 95/14/1 96/30/1
f 97/5/1 98/6/1 99/7/1 100/8/1
f 101/21/1 102/22/1 103/10/1 104/9/1
f 105/22/1 106/23/1 107/24/1 108/10/1
f 109/22/1 110/23/1 111/24/1 112/10/1
f 113/22/1 114/23/1 115/24/1 116/10/1
f 117/25/1 118/26/1 119/27/1 120/28/1
f 121/9/1 122/10/1 123/11/1 124/12/1
f 125/21/1 126/22/1 127/10/1 128/9/1
f 129/22/1 130/23/1 131/24/1 132/10/1
f 133/22/1 134/23/1 135/24/1 136/10/1
f 137/33/1 138/34/1 139/35/1 140/36/1
f 141/37/1 142/38/1 143/34/1 144/33/1
f 145/37/1 146/38/1 147/34/1 148/33/1
f 149/39/1 150/40/1 151/41/1 152/42/1
f 153/43/1 154/33/1 155/36/1 156/40/1
f 157/33/1 158/34/1 159/35/1 160/36/1
f 161/37/1 162/38/1 163/34/1 164/33/1
f 165/44/1 166/45/1 167/37/1 168/46/1
f 169/44/1 170/45/1 171/37/1 172/46/1
f 173/45/1 174/47/1 175/38/1 176/37/1

