# Tiled2Unity generated file. Do not modify by hand.
# Wavefront file for 'Debug_A_mesh_0001.obj'

# Vertices (Count = 360)
v 0 -1 0
v -1 -1 0
v -1 0 0
v 0 0 0
v -1 -1 0
v -2 -1 0
v -2 0 0
v -1 0 0
v -2 -1 0
v -3 -1 0
v -3 0 0
v -2 0 0
v -3 -1 0
v -4 -1 0
v -4 0 0
v -3 0 0
v -4 -1 0
v -5 -1 0
v -5 0 0
v -4 0 0
v -5 -1 0
v -6 -1 0
v -6 0 0
v -5 0 0
v -6 -1 0
v -7 -1 0
v -7 0 0
v -6 0 0
v -7 -1 0
v -8 -1 0
v -8 0 0
v -7 0 0
v -8 -1 0
v -9 -1 0
v -9 0 0
v -8 0 0
v -9 -1 0
v -10 -1 0
v -10 0 0
v -9 0 0
v 0 -2 0
v -1 -2 0
v -1 -1 0
v 0 -1 0
v -1 -2 0
v -2 -2 0
v -2 -1 0
v -1 -1 0
v -2 -2 0
v -3 -2 0
v -3 -1 0
v -2 -1 0
v -3 -2 0
v -4 -2 0
v -4 -1 0
v -3 -1 0
v -4 -2 0
v -5 -2 0
v -5 -1 0
v -4 -1 0
v -5 -2 0
v -6 -2 0
v -6 -1 0
v -5 -1 0
v -6 -2 0
v -7 -2 0
v -7 -1 0
v -6 -1 0
v -7 -2 0
v -8 -2 0
v -8 -1 0
v -7 -1 0
v -8 -2 0
v -9 -2 0
v -9 -1 0
v -8 -1 0
v -9 -2 0
v -10 -2 0
v -10 -1 0
v -9 -1 0
v 0 -3 0
v -1 -3 0
v -1 -2 0
v 0 -2 0
v -1 -3 0
v -2 -3 0
v -2 -2 0
v -1 -2 0
v -2 -3 0
v -3 -3 0
v -3 -2 0
v -2 -2 0
v -3 -3 0
v -4 -3 0
v -4 -2 0
v -3 -2 0
v -4 -3 0
v -5 -3 0
v -5 -2 0
v -4 -2 0
v -5 -3 0
v -6 -3 0
v -6 -2 0
v -5 -2 0
v -6 -3 0
v -7 -3 0
v -7 -2 0
v -6 -2 0
v -7 -3 0
v -8 -3 0
v -8 -2 0
v -7 -2 0
v -8 -3 0
v -9 -3 0
v -9 -2 0
v -8 -2 0
v -9 -3 0
v -10 -3 0
v -10 -2 0
v -9 -2 0
v 0 -4 0
v -1 -4 0
v -1 -3 0
v 0 -3 0
v -1 -4 0
v -2 -4 0
v -2 -3 0
v -1 -3 0
v -2 -4 0
v -3 -4 0
v -3 -3 0
v -2 -3 0
v -3 -4 0
v -4 -4 0
v -4 -3 0
v -3 -3 0
v -4 -4 0
v -5 -4 0
v -5 -3 0
v -4 -3 0
v -5 -4 0
v -6 -4 0
v -6 -3 0
v -5 -3 0
v -6 -4 0
v -7 -4 0
v -7 -3 0
v -6 -3 0
v -7 -4 0
v -8 -4 0
v -8 -3 0
v -7 -3 0
v -8 -4 0
v -9 -4 0
v -9 -3 0
v -8 -3 0
v -9 -4 0
v -10 -4 0
v -10 -3 0
v -9 -3 0
v 0 -5 0
v -1 -5 0
v -1 -4 0
v 0 -4 0
v -1 -5 0
v -2 -5 0
v -2 -4 0
v -1 -4 0
v -2 -5 0
v -3 -5 0
v -3 -4 0
v -2 -4 0
v -3 -5 0
v -4 -5 0
v -4 -4 0
v -3 -4 0
v -4 -5 0
v -5 -5 0
v -5 -4 0
v -4 -4 0
v -5 -5 0
v -6 -5 0
v -6 -4 0
v -5 -4 0
v -6 -5 0
v -7 -5 0
v -7 -4 0
v -6 -4 0
v -7 -5 0
v -8 -5 0
v -8 -4 0
v -7 -4 0
v -8 -5 0
v -9 -5 0
v -9 -4 0
v -8 -4 0
v -9 -5 0
v -10 -5 0
v -10 -4 0
v -9 -4 0
v 0 -6 0
v -1 -6 0
v -1 -5 0
v 0 -5 0
v -1 -6 0
v -2 -6 0
v -2 -5 0
v -1 -5 0
v -2 -6 0
v -3 -6 0
v -3 -5 0
v -2 -5 0
v -3 -6 0
v -4 -6 0
v -4 -5 0
v -3 -5 0
v -4 -6 0
v -5 -6 0
v -5 -5 0
v -4 -5 0
v -5 -6 0
v -6 -6 0
v -6 -5 0
v -5 -5 0
v -6 -6 0
v -7 -6 0
v -7 -5 0
v -6 -5 0
v -7 -6 0
v -8 -6 0
v -8 -5 0
v -7 -5 0
v -8 -6 0
v -9 -6 0
v -9 -5 0
v -8 -5 0
v -9 -6 0
v -10 -6 0
v -10 -5 0
v -9 -5 0
v 0 -7 0
v -1 -7 0
v -1 -6 0
v 0 -6 0
v -1 -7 0
v -2 -7 0
v -2 -6 0
v -1 -6 0
v -2 -7 0
v -3 -7 0
v -3 -6 0
v -2 -6 0
v -3 -7 0
v -4 -7 0
v -4 -6 0
v -3 -6 0
v -4 -7 0
v -5 -7 0
v -5 -6 0
v -4 -6 0
v -5 -7 0
v -6 -7 0
v -6 -6 0
v -5 -6 0
v -6 -7 0
v -7 -7 0
v -7 -6 0
v -6 -6 0
v -7 -7 0
v -8 -7 0
v -8 -6 0
v -7 -6 0
v -8 -7 0
v -9 -7 0
v -9 -6 0
v -8 -6 0
v -9 -7 0
v -10 -7 0
v -10 -6 0
v -9 -6 0
v 0 -8 0
v -1 -8 0
v -1 -7 0
v 0 -7 0
v -1 -8 0
v -2 -8 0
v -2 -7 0
v -1 -7 0
v -2 -8 0
v -3 -8 0
v -3 -7 0
v -2 -7 0
v -3 -8 0
v -4 -8 0
v -4 -7 0
v -3 -7 0
v -4 -8 0
v -5 -8 0
v -5 -7 0
v -4 -7 0
v -5 -8 0
v -6 -8 0
v -6 -7 0
v -5 -7 0
v -6 -8 0
v -7 -8 0
v -7 -7 0
v -6 -7 0
v -7 -8 0
v -8 -8 0
v -8 -7 0
v -7 -7 0
v -8 -8 0
v -9 -8 0
v -9 -7 0
v -8 -7 0
v -9 -8 0
v -10 -8 0
v -10 -7 0
v -9 -7 0
v 0 -9 0
v -1 -9 0
v -1 -8 0
v 0 -8 0
v -1 -9 0
v -2 -9 0
v -2 -8 0
v -1 -8 0
v -2 -9 0
v -3 -9 0
v -3 -8 0
v -2 -8 0
v -3 -9 0
v -4 -9 0
v -4 -8 0
v -3 -8 0
v -4 -9 0
v -5 -9 0
v -5 -8 0
v -4 -8 0
v -5 -9 0
v -6 -9 0
v -6 -8 0
v -5 -8 0
v -6 -9 0
v -7 -9 0
v -7 -8 0
v -6 -8 0
v -7 -9 0
v -8 -9 0
v -8 -8 0
v -7 -8 0
v -8 -9 0
v -9 -9 0
v -9 -8 0
v -8 -8 0
v -9 -9 0
v -10 -9 0
v -10 -8 0
v -9 -8 0

# Texture cooridinates (Count = 26)
vt 0.08333334 0.8409091
vt 0.1666667 0.8409091
vt 0.1666667 0.8636364
vt 0.08333334 0.8636364
vt 0.75 0.7272727
vt 0.8333333 0.7272727
vt 0.8333333 0.75
vt 0.75 0.75
vt 0.9166667 0.7045455
vt 1 0.7045455
vt 1 0.7272727
vt 0.9166667 0.7272727
vt 0.9166667 0.75
vt 0.9166667 0.7727273
vt 0.8333333 0.7727273
vt 0 0.8409091
vt 0 0.8636364
vt 0.25 0.8181818
vt 0.3333333 0.8181818
vt 0.3333333 0.8409091
vt 0.25 0.8409091
vt 0.08333334 0.8181818
vt 0.1666667 0.8181818
vt 0.75 0.7727273
vt 0.3333333 0.8636364
vt 0.25 0.8636364

# Normal
vn 0 0 -1

# Mesh description
g Debug_A_mesh_0001

# Faces
f 1/1/1 2/2/1 3/3/1 4/4/1
f 5/1/1 6/2/1 7/3/1 8/4/1
f 9/1/1 10/2/1 11/3/1 12/4/1
f 13/1/1 14/2/1 15/3/1 16/4/1
f 17/1/1 18/2/1 19/3/1 20/4/1
f 21/1/1 22/2/1 23/3/1 24/4/1
f 25/1/1 26/2/1 27/3/1 28/4/1
f 29/5/1 30/6/1 31/7/1 32/8/1
f 33/9/1 34/10/1 35/11/1 36/12/1
f 37/7/1 38/13/1 39/14/1 40/15/1
f 41/1/1 42/2/1 43/3/1 44/4/1
f 45/16/1 46/1/1 47/4/1 48/17/1
f 49/1/1 50/2/1 51/3/1 52/4/1
f 53/1/1 54/2/1 55/3/1 56/4/1
f 57/1/1 58/2/1 59/3/1 60/4/1
f 61/18/1 62/19/1 63/20/1 64/21/1
f 65/22/1 66/23/1 67/2/1 68/1/1
f 69/22/1 70/23/1 71/2/1 72/1/1
f 73/8/1 74/7/1 75/15/1 76/24/1
f 77/7/1 78/13/1 79/14/1 80/15/1
f 81/16/1 82/1/1 83/4/1 84/17/1
f 85/18/1 86/19/1 87/20/1 88/21/1
f 89/22/1 90/23/1 91/2/1 92/1/1
f 93/22/1 94/23/1 95/2/1 96/1/1
f 97/1/1 98/2/1 99/3/1 100/4/1
f 101/16/1 102/1/1 103/4/1 104/17/1
f 105/22/1 106/23/1 107/2/1 108/1/1
f 109/1/1 110/2/1 111/3/1 112/4/1
f 113/5/1 114/6/1 115/7/1 116/8/1
f 117/6/1 118/12/1 119/13/1 120/7/1
f 121/16/1 122/1/1 123/4/1 124/17/1
f 125/1/1 126/2/1 127/3/1 128/4/1
f 129/1/1 130/2/1 131/3/1 132/4/1
f 133/22/1 134/23/1 135/2/1 136/1/1
f 137/21/1 138/20/1 139/25/1 140/26/1
f 141/22/1 142/23/1 143/2/1 144/1/1
f 145/22/1 146/23/1 147/2/1 148/1/1
f 149/22/1 150/23/1 151/2/1 152/1/1
f 153/18/1 154/19/1 155/20/1 156/21/1
f 157/1/1 158/2/1 159/3/1 160/4/1
f 161/16/1 162/1/1 163/4/1 164/17/1
f 165/16/1 166/1/1 167/4/1 168/17/1
f 169/16/1 170/1/1 171/4/1 172/17/1
f 173/22/1 174/23/1 175/2/1 176/1/1
f 177/1/1 178/2/1 179/3/1 180/4/1
f 181/22/1 182/23/1 183/2/1 184/1/1
f 185/22/1 186/23/1 187/2/1 188/1/1
f 189/22/1 190/23/1 191/2/1 192/1/1
f 193/16/1 194/1/1 195/4/1 196/17/1
f 197/16/1 198/1/1 199/4/1 200/17/1
f 201/16/1 202/1/1 203/4/1 204/17/1
f 205/16/1 206/1/1 207/4/1 208/17/1
f 209/21/1 210/20/1 211/25/1 212/26/1
f 213/22/1 214/23/1 215/2/1 216/1/1
f 217/1/1 218/2/1 219/3/1 220/4/1
f 221/1/1 222/2/1 223/3/1 224/4/1
f 225/22/1 226/23/1 227/2/1 228/1/1
f 229/22/1 230/23/1 231/2/1 232/1/1
f 233/1/1 234/2/1 235/3/1 236/4/1
f 237/1/1 238/2/1 239/3/1 240/4/1
f 241/1/1 242/2/1 243/3/1 244/4/1
f 245/16/1 246/1/1 247/4/1 248/17/1
f 249/16/1 250/1/1 251/4/1 252/17/1
f 253/16/1 254/1/1 255/4/1 256/17/1
f 257/16/1 258/1/1 259/4/1 260/17/1
f 261/22/1 262/23/1 263/2/1 264/1/1
f 265/22/1 266/23/1 267/2/1 268/1/1
f 269/1/1 270/2/1 271/3/1 272/4/1
f 273/1/1 274/2/1 275/3/1 276/4/1
f 277/1/1 278/2/1 279/3/1 280/4/1
f 281/21/1 282/20/1 283/25/1 284/26/1
f 285/1/1 286/2/1 287/3/1 288/4/1
f 289/16/1 290/1/1 291/4/1 292/17/1
f 293/16/1 294/1/1 295/4/1 296/17/1
f 297/16/1 298/1/1 299/4/1 300/17/1
f 301/18/1 302/19/1 303/20/1 304/21/1
f 305/22/1 306/23/1 307/2/1 308/1/1
f 309/22/1 310/23/1 311/2/1 312/1/1
f 313/22/1 314/23/1 315/2/1 316/1/1
f 317/1/1 318/2/1 319/3/1 320/4/1
f 321/1/1 322/2/1 323/3/1 324/4/1
f 325/1/1 326/2/1 327/3/1 328/4/1
f 329/1/1 330/2/1 331/3/1 332/4/1
f 333/1/1 334/2/1 335/3/1 336/4/1
f 337/1/1 338/2/1 339/3/1 340/4/1
f 341/1/1 342/2/1 343/3/1 344/4/1
f 345/1/1 346/2/1 347/3/1 348/4/1
f 349/22/1 350/23/1 351/2/1 352/1/1
f 353/22/1 354/23/1 355/2/1 356/1/1
f 357/1/1 358/2/1 359/3/1 360/4/1

