# Tiled2Unity generated file. Do not modify by hand.
# Wavefront file for 'Debug_B_mesh_0002.obj'

# Vertices (Count = 32)
v 0 -6 0
v -1 -6 0
v -1 -5 0
v 0 -5 0
v -1 -6 0
v -2 -6 0
v -2 -5 0
v -1 -5 0
v 0 -7 0
v -1 -7 0
v -1 -6 0
v 0 -6 0
v -1 -7 0
v -2 -7 0
v -2 -6 0
v -1 -6 0
v 0 -8 0
v -1 -8 0
v -1 -7 0
v 0 -7 0
v -1 -8 0
v -2 -8 0
v -2 -7 0
v -1 -7 0
v 0 -9 0
v -1 -9 0
v -1 -8 0
v 0 -8 0
v -1 -9 0
v -2 -9 0
v -2 -8 0
v -1 -8 0

# Texture cooridinates (Count = 13)
vt 0.2666667 0.8852459
vt 0.3333333 0.8852459
vt 0.3333333 0.9016393
vt 0.2666667 0.9016393
vt 0.4 0.8852459
vt 0.4 0.9016393
vt 0.4666667 0.9344262
vt 0.5333334 0.9344262
vt 0.5333334 0.9508197
vt 0.4666667 0.9508197
vt 0.3333333 0.8688525
vt 0.4 0.8688525
vt 0.2666667 0.8688525

# Normal
vn 0 0 -1

# Mesh description
g Debug_B_mesh_0002

# Faces
f 1/1/1 2/2/1 3/3/1 4/4/1
f 5/2/1 6/5/1 7/6/1 8/3/1
f 9/7/1 10/8/1 11/9/1 12/10/1
f 13/11/1 14/12/1 15/5/1 16/2/1
f 17/13/1 18/11/1 19/2/1 20/1/1
f 21/11/1 22/12/1 23/5/1 24/2/1
f 25/13/1 26/11/1 27/2/1 28/1/1
f 29/11/1 30/12/1 31/5/1 32/2/1

